Patient4_TMGait_0pt2_03_right_06_GRF.mot
version=1
nRows=32
nColumns=19
inDegrees=no
endheader
time	F1x	F1y	F1z	M1x	M1y	M1z	F2x	F2y	F2z	M2x	M2y	M2z	EC1x	EC1y	EC1z	EC2x	EC2y	EC2z
12.71	9.4124	703.6663	61.4004	-215.3178	-64.3824	769.7677	-6.4189	-8.0821	1.9034	-1.6224	-0.42398	-7.1963	-0.0592	0.0182	-0.0073	-0.0462	0.0165	0.9585
12.7314	8.8511	701.7484	61.9605	-215.4671	-64.9495	767.5326	-4.369	-4.6585	1.2933	-0.8389	-0.26236	-4.052	-0.0592	0.0182	-0.0073	-0.0462	0.0165	0.9585
12.7529	7.6059	706.7981	62.7443	-218.1072	-65.7931	772.8965	-2.6293	-1.7417	0.78142	-0.16883	-0.12743	-1.3631	-0.0592	0.0182	-0.0073	-0.0462	0.0165	0.9585
12.7743	5.4391	721.7951	63.7882	-224.1561	-67.0134	789.0994	-1.2996	0.50193	0.39402	0.351	-0.025115	0.71851	-0.0592	0.0182	-0.0073	-0.0462	0.0165	0.9585
12.7957	2.276	748.2686	65.2086	-234.0136	-68.7781	817.7584	-0.37654	2.079	0.12866	0.72213	0.04358	2.1958	-0.0592	0.0182	-0.0073	-0.0462	0.0165	0.9585
12.8171	-1.7434	785.1823	67.1722	-247.2249	-71.2702	857.6672	0.19897	3.0808	-0.03238	0.96386	0.079727	3.1479	-0.0592	0.0182	-0.0073	-0.0462	0.0165	0.9585
12.8386	-6.2799	828.6854	69.7648	-262.4366	-74.5398	904.5236	0.50959	3.622	-0.11225	1.0991	0.085453	3.6703	-0.0592	0.0182	-0.0073	-0.0462	0.0165	0.9585
12.86	-10.8541	872.9012	72.8338	-277.6853	-78.332	951.8012	0.63856	3.7993	-0.13324	1.1451	0.064667	3.8378	-0.0592	0.0182	-0.0073	-0.0462	0.0165	0.9585
12.8814	-14.9285	911.3084	75.9564	-290.8606	-82.0646	992.2789	0.65881	3.6712	-0.11219	1.1085	0.018022	3.689	-0.0592	0.0182	-0.0073	-0.0462	0.0165	0.9585
12.9029	-17.9976	938.1532	78.5319	-300.1528	-84.9506	1019.5919	0.62866	3.2486	-0.060322	0.98299	-0.056963	3.2199	-0.0592	0.0182	-0.0073	-0.0462	0.0165	0.9585
12.9243	-19.627	949.5876	79.9486	-304.3977	-86.1951	1029.4721	0.59168	2.5048	0.016865	0.75164	-0.16294	2.3893	-0.0592	0.0182	-0.0073	-0.0462	0.0165	0.9585
12.9457	-19.4837	944.289	79.7655	-303.2476	-85.2172	1020.4378	0.57527	1.392	0.11666	0.39267	-0.30249	1.1333	-0.0592	0.0182	-0.0073	-0.0462	0.0165	0.9585
12.9671	-17.4042	923.5239	77.8306	-297.1641	-81.811	993.8761	0.5924	-0.13171	0.23523	-0.11193	-0.47405	-0.59459	-0.0592	0.0182	-0.0073	-0.0462	0.0165	0.9585
12.9886	-13.4445	890.6883	74.3162	-287.2597	-76.1971	953.5572	0.64379	-2.0639	0.3615	-0.76341	-0.66228	-2.7792	-0.0592	0.0182	-0.0073	-0.0462	0.0165	0.9585
13.01	-7.8882	850.4947	69.6666	-275.0362	-68.9591	904.7401	0.71548	-4.3007	0.4714	-1.5269	-0.83165	-5.2818	-0.0592	0.0182	-0.0073	-0.0462	0.0165	0.9585
13.0314	-1.1989	807.9687	64.4719	-262.0742	-60.8897	853.0625	0.7768	-6.5621	0.52423	-2.3071	-0.92182	-7.7614	-0.0592	0.0182	-0.0073	-0.0462	0.0165	0.9585
13.0529	6.0564	767.4994	59.3168	-249.7456	-52.797	803.4875	0.78123	-8.3154	0.45611	-2.9214	-0.83964	-9.587	-0.0592	0.0182	-0.0073	-0.0462	0.0165	0.9585
13.0743	13.2714	732.1953	54.6559	-239.0179	-45.3515	759.594	0.66335	-8.6943	0.17954	-3.0722	-0.45466	-9.7451	-0.0592	0.0182	-0.0073	-0.0462	0.0165	0.9585
13.0957	19.8792	703.6234	50.7566	-230.3747	-39.0024	723.2762	0.33412	-6.4373	-0.41254	-2.3243	0.39549	-6.7811	-0.0592	0.0182	-0.0073	-0.0462	0.0165	0.9585
13.1171	25.4416	681.7923	47.709	-223.807	-33.9607	694.7098	-0.31089	0.1193	-1.4381	-0.10113	1.8955	1.2027	-0.0592	0.0182	-0.0073	-0.0462	0.0165	0.9585
13.1386	29.7015	665.2764	45.4763	-218.8458	-30.2426	672.5001	-1.3769	12.9462	-3.0033	4.2841	4.2176	16.4275	-0.0592	0.0182	-0.0073	-0.0462	0.0165	0.9585
13.16	32.5676	651.5758	43.9362	-214.6741	-27.7278	654.0942	-2.9477	34.0641	-5.1652	11.54	7.4618	41.1219	-0.0592	0.0182	-0.0073	-0.0462	0.0165	0.9585
13.1814	34.072	637.6532	42.9052	-210.3036	-26.2028	636.3729	-5.0429	65.0576	-7.8722	22.231	11.5691	76.9405	-0.0592	0.0182	-0.0073	-0.0462	0.0165	0.9585
13.2029	34.3337	620.5339	42.1375	-204.775	-25.3767	616.2872	-7.5817	106.3846	-10.9157	36.539	16.2501	124.1562	-0.0592	0.0182	-0.0073	-0.0462	0.0165	0.9585
13.2243	33.565	597.8673	41.3172	-197.3434	-24.8737	591.4314	-10.5306	157.1541	-14.112	54.1651	21.248	181.4486	-0.0592	0.0182	-0.0073	-0.0462	0.0165	0.9585
13.2457	32.0353	568.132	40.1142	-187.538	-24.298	560.2487	-13.7313	215.072	-17.4832	74.2963	26.481	245.9315	-0.0592	0.0182	-0.0073	-0.0462	0.0165	0.9585
13.2671	30.0067	530.7773	38.2783	-175.1981	-23.3414	522.1643	-16.7461	276.6394	-21.1943	95.6812	31.9283	313.4566	-0.0592	0.0182	-0.0073	-0.0462	0.0165	0.9585
13.2886	27.6828	486.566	35.6975	-160.5799	-21.8475	477.9083	-19.1598	337.6911	-25.3072	116.8397	37.4833	379.3139	-0.0592	0.0182	-0.0073	-0.0462	0.0165	0.9585
13.31	25.1949	437.7516	32.4273	-144.4167	-19.8344	429.6866	-20.6933	394.446	-29.5502	136.4554	42.7594	439.4345	-0.0592	0.0182	-0.0073	-0.0462	0.0165	0.9585
13.3314	22.6049	387.7048	28.6927	-127.8018	-17.4925	380.7973	-21.1951	444.5356	-33.5064	153.7323	47.2767	491.4611	-0.0592	0.0182	-0.0073	-0.0462	0.0165	0.9585
13.3529	19.9336	340.0467	24.8207	-111.9133	-15.1099	334.7585	-20.6632	486.9647	-36.8035	168.3668	50.6605	534.6104	-0.0592	0.0182	-0.0073	-0.0462	0.0165	0.9585
13.3743	17.2318	297.7514	21.1433	-97.7265	-12.9621	294.4016	-19.3035	521.4556	-39.1592	180.3038	52.7066	568.8977	-0.0592	0.0182	-0.0073	-0.0462	0.0165	0.9585
